<svg xmlns="http://www.w3.org/2000/svg" xmlns:xlink="http://www.w3.org/1999/xlink" width="155" height="175" x="0" y="0" version="1.1" viewbox="0 0 150 175" xml:space="preserve"><g><g transform="scale(0.25)"><polygon fill="#e0a800" points="303 0 0 175 303 350 605 175"/><polygon fill="#ffec52" points="0 175 0 525 303 700 303 350"/><polygon fill="#f7c30f" points="303 700 605 525 605 175 303 350"/></g><g transform="scale(0.25) translate(303, 350) scale(0.618) rotate(180) translate(-303, -350)"><polygon fill="#e0a800" points="303 0 0 175 303 350 605 175"/><polygon fill="#ffec52" points="0 175 0 525 303 700 303 350"/><polygon fill="#f7c30f" points="303 700 605 525 605 175 303 350"/></g><g transform="scale(0.25) translate(303, 350) scale(0.474) translate(-303, -350)"><polygon fill="#fff" points="303 0 0 175 303 350 605 175" style="stroke:#000;stroke-width:1"/><polygon fill="#fff" points="0 175 0 525 303 700 303 350" style="stroke:#000;stroke-width:1"/><polygon fill="#fff" points="303 700 605 525 605 175 303 350" style="stroke:#000;stroke-width:1"/></g></g></svg>